<?xml version="1.0" standalone="no"?>
<!DOCTYPE svg PUBLIC "-//W3C//DTD SVG 20010904//EN"
 "http://www.w3.org/TR/2001/REC-SVG-20010904/DTD/svg10.dtd">
<svg version="1.0" xmlns="http://www.w3.org/2000/svg"
 width="228.000000pt" height="228.000000pt" viewBox="0 0 228.000000 228.000000"
 preserveAspectRatio="xMidYMid meet">
<metadata>
Created by potrace 1.11, written by Peter Selinger 2001-2013
</metadata>
<g transform="translate(0.000000,228.000000) scale(0.100000,-0.100000)"
fill="#000000" stroke="none">
<path d="M1035 2239 c-4 -5 -10 -7 -15 -4 -4 3 -32 0 -61 -6 -30 -6 -65 -12
-79 -15 -101 -18 -251 -83 -369 -159 -66 -41 -241 -199 -241 -216 0 -4 38 -8
85 -8 114 0 196 -16 282 -56 164 -76 256 -233 201 -344 -22 -45 -68 -72 -114
-67 -16 2 -34 4 -41 5 -19 2 -48 37 -90 108 -73 126 -135 159 -283 151 -98 -6
-155 -29 -194 -80 -59 -78 -24 -171 81 -216 38 -16 244 -74 343 -97 9 -1 51
-17 95 -34 192 -74 273 -173 280 -342 8 -209 -102 -360 -316 -432 -64 -22
-122 -30 -212 -31 l-78 -1 53 -50 c129 -121 251 -194 423 -253 69 -23 179 -47
213 -46 12 1 22 -2 22 -6 0 -11 212 -9 234 2 14 7 16 7 11 -2 -5 -9 -2 -9 11
-2 11 5 48 15 84 22 306 58 593 262 752 536 55 94 111 244 124 329 2 11 7 45
13 75 10 55 7 258 -4 315 -71 361 -283 647 -600 808 -96 49 -291 108 -362 110
-13 1 -23 4 -23 7 0 10 -219 10 -225 -1z m213 -468 c43 -30 53 -71 55 -218 l2
-128 60 -1 c115 -1 150 -28 146 -111 -2 -47 -64 -75 -171 -77 l-35 -1 0 -298
0 -299 27 -23 c28 -24 51 -26 158 -10 38 5 51 2 72 -15 55 -43 45 -121 -20
-158 -51 -28 -81 -34 -192 -36 -170 -2 -236 28 -280 126 -27 61 -31 126 -32
444 0 270 0 271 -22 271 -54 1 -66 5 -95 29 -44 37 -44 91 0 128 17 14 40 27
52 27 12 1 31 2 42 3 18 1 20 8 21 93 2 132 11 199 31 229 36 55 122 67 181
25z m638 -1165 c38 -38 44 -77 20 -124 -38 -73 -154 -73 -192 0 -24 47 -18 86
20 124 28 28 42 34 76 34 34 0 48 -6 76 -34z"/>
<path d="M19 1129 c-17 -52 25 -277 71 -384 42 -99 134 -148 267 -144 120 3
210 45 254 116 24 39 30 124 11 160 -28 51 -120 105 -218 128 -10 2 -39 9 -64
16 -25 6 -56 13 -70 15 -52 10 -216 68 -232 82 -10 8 -19 13 -19 11z"/>
</g>
</svg>
